<?xml version="1.0" encoding="UTF-8"?>
<svg id="Layer_2" data-name="Layer 2" xmlns="http://www.w3.org/2000/svg" xmlns:xlink="http://www.w3.org/1999/xlink" viewBox="0 0 399.36 137.69">
  <defs>
    <style>
      .cls-1 {
        fill: url(#linear-gradient);
      }

      .cls-1, .cls-2, .cls-3 {
        stroke-width: 0px;
      }

      .cls-2 {
        fill: #f15822;
      }

      .cls-3 {
        fill: url(#linear-gradient-2);
      }

      .cls-4 {
        fill: #fff;
        stroke: #fff;
        stroke-miterlimit: 10;
      }
    </style>
    <linearGradient id="linear-gradient" x1="190.49" y1="68.85" x2="310.73" y2="68.85" gradientUnits="userSpaceOnUse">
      <stop offset=".06" stop-color="#86c540"/>
      <stop offset=".96" stop-color="#beb131"/>
    </linearGradient>
    <linearGradient id="linear-gradient-2" x1="99.41" y1="68.85" x2="222.03" y2="68.85" xlink:href="#linear-gradient"/>
  </defs>
  <g id="Add_Connection" data-name="Add Connection">
    <rect class="cls-4" x=".5" y=".5" width="398.36" height="136.69" rx="60.18" ry="60.18"/>
    <path class="cls-1" d="M310.73,65.51v6.67c0,2.58-2.09,4.67-4.67,4.67h-54.68c-2.19,0-4.11,1.52-4.56,3.67-5.08,24.54-25.84,43.42-51.3,45.64-2.71.24-5.03-1.94-5.03-4.66v-6.7c0-2.4,1.82-4.4,4.21-4.64,18.26-1.85,33.06-15.58,36.53-33.31.51-2.59.77-5.27.77-8s-.27-5.41-.77-8c-3.47-17.73-18.28-31.46-36.54-33.31-2.39-.24-4.21-2.24-4.21-4.64v-6.7c0-2.72,2.32-4.89,5.03-4.66,25.46,2.22,46.22,21.09,51.3,45.63.44,2.15,2.36,3.67,4.56,3.67h54.68c2.58,0,4.67,2.09,4.67,4.67Z"/>
    <path class="cls-3" d="M221,60.84c-3.55-13.53-15.88-23.54-30.51-23.54-13.54,0-25.11,8.57-29.57,20.58-.67,1.8-2.42,2.96-4.34,2.96h-52.5c-2.58,0-4.67,2.09-4.67,4.67v6.67c0,2.58,2.09,4.67,4.67,4.67h52.5c1.92,0,3.67,1.16,4.34,2.96,4.46,12.01,16.03,20.58,29.57,20.58,14.63,0,26.96-10.01,30.51-23.54.67-2.56,1.03-5.24,1.03-8s-.36-5.45-1.03-8ZM203.8,76.85c-2.72,4.51-7.67,7.53-13.31,7.53s-10.59-3.02-13.31-7.53c-1.41-2.34-2.22-5.08-2.22-8s.81-5.67,2.22-8c2.72-4.51,7.67-7.53,13.31-7.53s10.59,3.02,13.31,7.53c1.41,2.34,2.22,5.08,2.22,8s-.81,5.67-2.22,8Z"/>
  </g>
  <g id="Add_Connection_Hover" data-name="Add Connection Hover">
    <path class="cls-2" d="M310.73,65.51v6.67c0,2.58-2.09,4.67-4.67,4.67h-54.68c-2.19,0-4.11,1.52-4.56,3.67-5.08,24.54-25.84,43.42-51.3,45.64-2.71.24-5.03-1.94-5.03-4.66v-6.7c0-2.4,1.82-4.4,4.21-4.64,18.26-1.85,33.06-15.58,36.53-33.31.51-2.59.77-5.27.77-8s-.27-5.41-.77-8c-3.47-17.73-18.28-31.46-36.54-33.31-2.39-.24-4.21-2.24-4.21-4.64v-6.7c0-2.72,2.32-4.89,5.03-4.66,25.46,2.22,46.22,21.09,51.3,45.63.44,2.15,2.36,3.67,4.56,3.67h54.68c2.58,0,4.67,2.09,4.67,4.67Z"/>
    <path class="cls-2" d="M221,60.84c-3.55-13.53-15.88-23.54-30.51-23.54-13.54,0-25.11,8.57-29.57,20.58-.67,1.8-2.42,2.96-4.34,2.96h-52.5c-2.58,0-4.67,2.09-4.67,4.67v6.67c0,2.58,2.09,4.67,4.67,4.67h52.5c1.92,0,3.67,1.16,4.34,2.96,4.46,12.01,16.03,20.58,29.57,20.58,14.63,0,26.96-10.01,30.51-23.54.67-2.56,1.03-5.24,1.03-8s-.36-5.45-1.03-8ZM203.8,76.85c-2.72,4.51-7.67,7.53-13.31,7.53s-10.59-3.02-13.31-7.53c-1.41-2.34-2.22-5.08-2.22-8s.81-5.67,2.22-8c2.72-4.51,7.67-7.53,13.31-7.53s10.59,3.02,13.31,7.53c1.41,2.34,2.22,5.08,2.22,8s-.81,5.67-2.22,8Z"/>
  </g>
</svg>