<?xml version="1.0" encoding="UTF-8"?>
<svg id="Layer_2" data-name="Layer 2" xmlns="http://www.w3.org/2000/svg" viewBox="0 0 399.36 137.69">
  <defs>
    <style>
      .cls-1 {
        fill: #b9e5f4;
        stroke: #fff;
        stroke-miterlimit: 10;
      }

      .cls-2 {
        fill: #50c7e0;
        stroke-width: 0px;
      }
    </style>
  </defs>
  <g id="Add">
    <rect class="cls-1" x=".5" y=".5" width="398.36" height="136.69" rx="60.18" ry="60.18"/>
  </g>
  <g id="Layer_6" data-name="Layer 6">
    <g id="plus">
      <path class="cls-2" d="M241.88,101l-15.17,15.17c-1.6,1.6-4.19,1.6-5.78,0l-23.65-23.65-24.14,24.14c-1.32,1.32-3.47,1.32-4.79,0l-16.16-16.16c-1.32-1.32-1.32-3.47,0-4.79l24.14-24.14-23.65-23.65c-1.6-1.6-1.6-4.19,0-5.78l15.17-15.17c1.59-1.59,4.18-1.59,5.78,0l23.65,23.65,24.15-24.15c1.32-1.32,3.46-1.32,4.79,0l16.16,16.16c1.32,1.32,1.32,3.46,0,4.78l-24.15,24.15,23.65,23.65c1.59,1.59,1.59,4.18,0,5.77Z"/>
    </g>
  </g>
</svg>