<?xml version="1.0" encoding="UTF-8"?>
<svg id="Layer_2" xmlns="http://www.w3.org/2000/svg" viewBox="0 0 339 339">
  <defs>
    <style>
      .cls-1 {
        fill: #f15822;
      }

      .cls-2 {
        fill: #fff;
        stroke: #fff;
        stroke-miterlimit: 10;
      }
    </style>
  </defs>
  <g id="upvote_and_downvote">
    <circle class="cls-2" cx="169.5" cy="169.5" r="169"/>
    <path class="cls-1" d="M261.34,138.93c-5.03-11.72-11.8-21.83-20.3-30.33-8.5-8.5-18.61-15.27-30.33-20.3-11.72-5.03-24.01-7.55-36.89-7.55-12.13,0-23.87,2.29-35.22,6.87-11.35,4.57-21.44,11.04-30.26,19.37l-16.09-15.97c-2.48-2.56-5.32-3.14-8.54-1.73-3.3,1.4-4.95,3.84-4.95,7.3v55.45c0,2.15.78,4,2.35,5.57,1.57,1.57,3.43,2.35,5.57,2.35h55.45c3.47,0,5.9-1.65,7.3-4.95,1.4-3.22.82-6.07-1.73-8.54l-16.96-17.08c5.78-5.45,12.38-9.63,19.81-12.56,7.43-2.93,15.18-4.4,23.27-4.4,8.58,0,16.77,1.67,24.57,5.01,7.8,3.34,14.54,7.86,20.24,13.56,5.69,5.69,10.21,12.44,13.56,20.24,3.34,7.8,5.01,15.99,5.01,24.57s-1.67,16.77-5.01,24.57c-3.34,7.8-7.86,14.54-13.56,20.24-5.69,5.69-12.44,10.21-20.24,13.55-7.8,3.34-15.99,5.01-24.57,5.01-9.82,0-19.1-2.15-27.85-6.44-8.75-4.29-16.13-10.36-22.16-18.2-.58-.82-1.52-1.32-2.85-1.49-1.24,0-2.27.37-3.09,1.11l-16.96,17.08c-.66.66-1.01,1.51-1.05,2.54-.04,1.03.23,1.96.81,2.78,9,10.89,19.89,19.33,32.68,25.31,12.79,5.98,26.28,8.97,40.48,8.97,12.87,0,25.17-2.52,36.89-7.55,11.72-5.03,21.82-11.8,30.33-20.3,8.5-8.5,15.27-18.61,20.3-30.33,5.03-11.72,7.55-24.02,7.55-36.89s-2.52-25.17-7.55-36.88"/>
  </g>
</svg>